<svg viewBox="0 0 3720 612" xmlns="http://www.w3.org/2000/svg" xmlns:xlink="http://www.w3.org/1999/xlink" width="3720.000000" height="612.000000" fill="none">
	<defs>
		<linearGradient id="paint_linear_0" x1="427.447021" x2="427.447021" y1="10" y2="602" gradientUnits="userSpaceOnUse">
			<stop stop-color="rgb(0,150,250)" offset="0.00763356686" stop-opacity="1" />
			<stop stop-color="rgb(44,121,244)" offset="0.992366433" stop-opacity="1" />
		</linearGradient>
		<linearGradient id="paint_linear_1" x1="909.915405" x2="909.915405" y1="10" y2="602" gradientUnits="userSpaceOnUse">
			<stop stop-color="rgb(0,150,250)" offset="0.00763356686" stop-opacity="1" />
			<stop stop-color="rgb(44,121,244)" offset="0.992366433" stop-opacity="1" />
		</linearGradient>
		<linearGradient id="paint_linear_2" x1="2282.44702" x2="2282.44702" y1="10" y2="602" gradientUnits="userSpaceOnUse">
			<stop stop-color="rgb(0,150,250)" offset="0.00763356686" stop-opacity="1" />
			<stop stop-color="rgb(44,121,244)" offset="0.992366433" stop-opacity="1" />
		</linearGradient>
		<linearGradient id="paint_linear_3" x1="1582.56104" x2="1582.56104" y1="10" y2="602" gradientUnits="userSpaceOnUse">
			<stop stop-color="rgb(0,150,250)" offset="0.00763356686" stop-opacity="1" />
			<stop stop-color="rgb(44,121,244)" offset="0.992366433" stop-opacity="1" />
		</linearGradient>
		<linearGradient id="paint_linear_4" x1="2944.44702" x2="2944.44702" y1="10" y2="602" gradientUnits="userSpaceOnUse">
			<stop stop-color="rgb(0,150,250)" offset="0.00763356686" stop-opacity="1" />
			<stop stop-color="rgb(44,121,244)" offset="0.992366433" stop-opacity="1" />
		</linearGradient>
		<linearGradient id="paint_linear_5" x1="3553.43311" x2="3553.43311" y1="10" y2="602" gradientUnits="userSpaceOnUse">
			<stop stop-color="rgb(0,150,250)" offset="0.00763356686" stop-opacity="1" />
			<stop stop-color="rgb(44,121,244)" offset="0.992366433" stop-opacity="1" />
		</linearGradient>
	</defs>
	<rect id="PixArk" width="3720.000000" height="612.000000" x="0.000000" y="0.000000" />
	<g id="组合 289">
		<path id="矢量 5" d="M10 602L90 602L90 306Q90 281.216 95.387 257.664Q99.5576 239.43 106.957 221.935C112.023 209.961 118.055 198.62 125.057 187.912C133.162 175.514 142.564 163.965 153.266 153.265Q169.261 137.267 187.789 125.137Q187.85 125.097 187.912 125.056C198.619 118.055 209.961 112.023 221.936 106.958C233.6 102.024 245.512 98.1669 257.668 95.3863C273.369 91.7954 289.479 90 306 90C322.521 90 338.631 91.7954 354.33 95.3862C366.488 98.1668 378.4 102.024 390.064 106.958Q408.011 114.549 424.062 125.039L424.09 125.057C436.486 133.162 448.035 142.565 458.734 153.265C469.436 163.965 478.838 175.514 486.943 187.912C493.945 198.62 499.977 209.961 505.043 221.935C509.977 233.6 513.832 245.511 516.613 257.668C520.205 273.368 522 289.479 522 306Q522 330.784 516.613 354.336L516.613 354.337Q512.442 372.57 505.043 390.065C499.979 402.038 493.945 413.379 486.945 424.087C478.84 436.485 469.436 448.034 458.734 458.735C448.035 469.436 436.484 478.839 424.088 486.944C413.379 493.945 402.039 499.978 390.064 505.042C378.4 509.976 366.488 513.833 354.332 516.614C338.631 520.205 322.521 522 306 522L206 522L206 602L306 602C346.129 602 384.539 594.241 421.229 578.723C437.992 571.632 453.848 563.161 468.793 553.311C485.422 542.35 500.926 529.681 515.303 515.304C529.682 500.926 542.35 485.422 553.311 468.793C563.162 453.847 571.633 437.993 578.723 421.229C594.24 384.539 602 346.13 602 306C602 265.87 594.24 227.461 578.723 190.771Q568.085 165.624 553.311 143.206C542.35 126.577 529.682 111.074 515.303 96.6964C500.926 82.3184 485.422 69.649 468.791 58.6882C453.846 48.8382 437.992 40.368 421.229 33.2776Q396.265 22.719 370.24 16.9497C349.34 12.3166 327.928 10 306 10C265.871 10 227.461 17.7592 190.771 33.2776C174.008 40.368 158.152 48.8382 143.209 58.6882L143.12 58.7472L143.119 58.7475Q118.224 75.1683 96.6973 96.6964C82.3184 111.074 69.6484 126.578 58.6895 143.208L58.624 143.307L58.6237 143.308Q43.8885 165.681 33.2773 190.771C26.2383 207.414 20.7949 224.41 16.9492 241.76Q10 273.11 10 306L10 602ZM344.389 213.322C332.604 208.441 319.807 206 306 206C292.193 206 279.396 208.441 267.611 213.322C255.826 218.204 245.053 225.526 235.289 235.289C225.525 245.052 218.203 255.827 213.322 267.612C208.441 279.397 206 292.193 206 306L206 406L306 406C319.807 406 332.604 403.559 344.389 398.678C356.174 393.796 366.947 386.474 376.711 376.711C386.475 366.948 393.797 356.173 398.678 344.388C403.559 332.603 406 319.807 406 306C406 292.193 403.559 279.397 398.678 267.612Q391.356 249.934 376.711 235.289C366.947 225.526 356.174 218.204 344.389 213.322Z" fill="url(#paint_linear_0)" fill-rule="evenodd" />
		<path id="矩形 3 (边框)" d="M716 147.87L716 601.929L796 601.929L796 147.87C796 139.878 797.413 132.472 800.239 125.651C803.064 118.83 807.303 112.594 812.955 106.943C818.606 101.292 824.843 97.0539 831.665 94.2285C838.487 91.4031 845.894 89.9904 853.886 89.9904C861.88 89.9904 868.288 91.4032 875.111 94.2287C881.956 97.0629 888.212 101.319 893.879 106.996C899.539 112.666 903.782 118.921 906.605 125.762C909.429 132.602 910.834 140.027 910.822 148.038L912.209 601.998L911 602L991 601.858L991 601.858L990.822 148.156C990.837 138.097 989.805 128.265 987.723 118.66C985.933 110.403 983.367 102.313 980.027 94.3913C976.693 86.4814 972.701 79.0058 968.051 71.9645C962.983 64.2901 957.133 57.1315 950.502 50.4888C943.854 43.8283 936.686 37.9525 928.998 32.8615C921.981 28.2149 914.531 24.2221 906.648 20.8829C898.731 17.5292 890.645 14.9506 882.389 13.1471C872.784 11.0491 863.95 10 853.886 10C843.833 10 834.008 11.0472 824.412 13.1416C816.174 14.9396 808.104 17.5094 800.203 20.8509C792.314 24.1873 784.858 28.1785 777.835 32.8245C770.169 37.8964 763.019 43.7486 756.386 50.3812C749.753 57.0137 743.9 64.1626 738.827 71.8278C734.181 78.8494 730.189 86.3043 726.852 94.1925C723.51 102.093 720.94 110.161 719.142 118.398C717.047 127.994 716 137.817 716 147.87Z" fill="url(#paint_linear_1)" fill-rule="evenodd" />
		<path id="矢量 6" d="M1945 602L1865 602L1865 306Q1865 273.11 1871.95 241.76C1875.79 224.41 1881.24 207.414 1888.28 190.771Q1898.89 165.681 1913.62 143.308L1913.62 143.307L1913.69 143.208C1924.65 126.578 1937.32 111.074 1951.7 96.6964Q1973.22 75.1683 1998.12 58.7475L1998.12 58.7472L1998.21 58.6882C2013.15 48.8382 2029.01 40.368 2045.77 33.2776C2082.46 17.7592 2120.87 10 2161 10C2201.13 10 2239.54 17.7592 2276.23 33.2776C2292.99 40.368 2308.85 48.8382 2323.79 58.6882C2340.42 69.6491 2355.93 82.3185 2370.3 96.6964C2384.68 111.074 2397.35 126.578 2408.31 143.208L2408.38 143.308Q2423.11 165.681 2433.72 190.771C2440.76 207.414 2446.21 224.41 2450.05 241.76Q2457 273.11 2457 306L2457 602L2377 602L2377 306Q2377 281.217 2371.61 257.665L2371.61 257.664Q2367.44 239.431 2360.04 221.935C2354.98 209.961 2348.95 198.62 2341.94 187.912C2333.84 175.514 2324.44 163.965 2313.73 153.265Q2297.74 137.273 2279.22 125.145L2279.21 125.137L2279.09 125.056C2268.38 118.055 2257.04 112.023 2245.06 106.958C2233.4 102.024 2221.49 98.1669 2209.33 95.3863C2193.63 91.7954 2177.52 90 2161 90C2144.48 90 2128.37 91.7954 2112.67 95.3863C2100.51 98.1669 2088.6 102.024 2076.94 106.958C2064.96 112.023 2053.62 118.055 2042.91 125.056Q2042.85 125.097 2042.79 125.137Q2024.26 137.267 2008.27 153.265C1997.56 163.965 1988.16 175.514 1980.06 187.912C1973.05 198.62 1967.02 209.961 1961.96 221.935Q1954.56 239.43 1950.39 257.664Q1945 281.216 1945 306L1945 602ZM2061 406L2061 306C2061 292.193 2063.44 279.397 2068.32 267.612C2073.2 255.827 2080.53 245.052 2090.29 235.289C2100.05 225.526 2110.83 218.204 2122.61 213.322C2134.4 208.441 2147.19 206 2161 206C2174.81 206 2187.6 208.441 2199.39 213.322C2211.17 218.204 2221.95 225.526 2231.71 235.289Q2246.36 249.934 2253.68 267.612C2258.56 279.397 2261 292.193 2261 306L2261 406L2061 406ZM2261 602L2261 522L2061 522.5L2061 602L2261 602Z" fill="url(#paint_linear_2)" fill-rule="evenodd" />
		<path id="矢量 7" d="M1123.88 26.127C1131.56 22.0404 1139.7 18.6663 1148.17 16.0661C1156.49 13.5119 1164.9 11.7643 1173.4 10.8233C1182.35 9.83304 1191.42 9.73624 1200.58 10.5366C1209.73 11.3369 1218.63 13.0018 1227.28 15.5312C1235.49 17.9335 1243.47 21.1157 1251.23 25.0778C1259.11 29.1029 1266.47 33.7895 1273.32 39.1375C1280.83 45.005 1287.71 51.6694 1293.98 59.1293L1427.91 218.663L1561.86 59.1271C1568.11 51.6772 1574.99 45.0214 1582.48 39.1596C1589.34 33.8027 1596.71 29.1085 1604.6 25.0779C1612.36 21.1156 1620.34 17.9332 1628.55 15.5308C1637.2 13.0026 1646.1 11.3367 1655.25 10.5366C1664.41 9.73612 1673.46 9.83123 1682.42 10.8219C1690.92 11.7629 1699.34 13.5117 1707.66 16.0663C1716.15 18.6709 1724.23 22.0208 1731.92 26.1163C1740.31 30.5835 1748.23 35.9393 1755.67 42.1803C1763.12 48.4316 1769.79 55.3041 1775.65 62.7977C1781.01 69.6436 1785.71 77.0176 1789.74 84.9001C1793.71 92.6526 1796.89 100.633 1799.29 108.843C1801.83 117.484 1803.49 126.379 1804.29 135.526C1805.09 144.668 1805 153.712 1804.01 162.656C1803.07 171.153 1801.32 179.592 1798.76 187.909C1796.15 196.384 1792.81 204.461 1788.71 212.143C1784.24 220.528 1778.88 228.453 1772.63 235.893L1607.5 432.572L1749.75 602L1645.26 602L1503.02 432.572L1711.31 184.471C1731.74 160.144 1728.56 123.876 1704.22 103.464C1679.88 83.0519 1643.6 86.2249 1623.17 110.551L1427.91 343.119L1232.66 110.551C1212.23 86.2249 1175.95 83.0519 1151.61 103.464C1127.27 123.876 1124.09 160.144 1144.52 184.471L1352.81 432.572L1210.57 602L1106.08 602L1248.32 432.572L1083.2 235.895C1076.95 228.445 1071.58 220.522 1067.11 212.125C1063.02 204.449 1059.67 196.377 1057.07 187.91C1054.51 179.589 1052.76 171.178 1051.82 162.679C1050.83 153.728 1050.74 144.677 1051.54 135.528C1052.34 126.394 1054 117.512 1056.52 108.882C1058.93 100.675 1062.12 92.6537 1066.09 84.9024C1070.11 77.0369 1074.79 69.6874 1080.13 62.854C1086 55.3616 1092.71 48.4308 1100.16 42.1803C1107.6 35.9435 1115.5 30.5924 1123.88 26.127ZM1360.77 602L1495.06 602L1427.91 522.025L1360.77 602Z" fill="url(#paint_linear_3)" fill-rule="evenodd" />
		<path id="减去顶层" d="M2527 602L2607 602L2607 306C2607 289.477 2608.8 273.365 2612.39 257.664C2615.17 245.508 2619.02 233.599 2623.96 221.935C2629.02 209.961 2635.05 198.62 2642.06 187.912C2650.16 175.514 2659.56 163.965 2670.27 153.265C2680.93 142.6 2692.44 133.224 2704.79 125.137C2704.83 125.11 2704.87 125.083 2704.91 125.056C2715.62 118.055 2726.96 112.023 2738.94 106.958C2750.6 102.024 2762.51 98.1669 2774.67 95.3863C2790.37 91.7954 2806.48 90 2823 90C2839.52 90 2855.63 91.7954 2871.33 95.3862C2883.49 98.1668 2895.4 102.024 2907.06 106.958C2919.03 112.018 2930.36 118.044 2941.06 125.037L2941.06 125.037L2941.06 125.039L2941.09 125.057C2953.49 133.162 2965.04 142.565 2975.73 153.265C2986.44 163.965 2995.84 175.514 3003.94 187.912C3010.95 198.62 3016.98 209.961 3022.04 221.935C3026.98 233.6 3030.83 245.511 3033.61 257.668C3037.21 273.368 3039 289.479 3039 306C3039 322.522 3037.2 338.634 3033.61 354.335L3033.61 354.336L3033.61 354.337C3030.83 366.493 3026.98 378.402 3022.04 390.065C3016.98 402.038 3010.95 413.379 3003.95 424.087C2995.84 436.485 2986.44 448.034 2975.73 458.735C2965.04 469.436 2953.48 478.839 2941.09 486.944C2930.38 493.945 2919.04 499.978 2907.06 505.042C2898.05 508.855 2888.89 512.026 2879.58 514.553L2942.08 577.06C2957.43 570.319 2972 562.403 2985.79 553.311C3002.42 542.35 3017.93 529.681 3032.3 515.304C3046.68 500.926 3059.35 485.422 3070.31 468.793C3080.16 453.847 3088.63 437.993 3095.72 421.229C3111.24 384.539 3119 346.13 3119 306C3119 265.87 3111.24 227.461 3095.72 190.771C3088.63 174.007 3080.16 158.151 3070.31 143.206C3059.35 126.577 3046.68 111.074 3032.3 96.6964C3017.93 82.3184 3002.42 69.649 2985.79 58.6882C2970.85 48.8382 2954.99 40.368 2938.23 33.2776C2921.59 26.2385 2904.59 20.7959 2887.24 16.9497C2866.34 12.3166 2844.93 10 2823 10C2782.87 10 2744.46 17.7592 2707.77 33.2776C2691.01 40.368 2675.15 48.8382 2660.21 58.6882L2660.12 58.7472L2660.12 58.7475C2643.52 69.6947 2628.05 82.3443 2613.7 96.6964C2599.32 111.074 2586.65 126.578 2575.69 143.208L2575.62 143.307L2575.62 143.308C2565.8 158.224 2557.35 174.045 2550.28 190.771C2543.24 207.414 2537.79 224.41 2533.95 241.76C2529.32 262.66 2527 284.073 2527 306L2527 602ZM2802.98 602L2723 522.024L2723 602L2802.98 602ZM2861.39 213.322C2849.6 208.441 2836.81 206 2823 206C2809.19 206 2796.4 208.441 2784.61 213.322C2772.83 218.204 2762.05 225.526 2752.29 235.289C2742.53 245.052 2735.2 255.827 2730.32 267.612C2725.44 279.397 2723 292.193 2723 306L2723 406L2823 406C2836.81 406 2849.6 403.559 2861.39 398.678C2873.17 393.796 2883.95 386.474 2893.71 376.711C2903.47 366.948 2910.8 356.173 2915.68 344.388C2920.56 332.603 2923 319.807 2923 306C2923 292.193 2920.56 279.397 2915.68 267.612C2910.8 255.826 2903.47 245.052 2893.71 235.289C2883.95 225.526 2873.17 218.204 2861.39 213.322Z" fill="url(#paint_linear_4)" fill-rule="evenodd" />
		<path id="减去顶层" d="M3179 602L3179 148C3179 138.239 3179.99 128.688 3181.97 119.346C3183.78 110.81 3186.41 102.446 3189.87 94.2601C3193.28 86.2143 3197.36 78.6206 3202.11 71.4792C3207.13 63.9578 3212.89 56.9377 3219.41 50.4195C3225.92 43.9013 3232.94 38.1356 3240.46 33.1224C3247.6 28.3627 3255.19 24.2805 3263.23 20.8775C3271.42 17.4157 3279.77 14.7801 3288.31 12.9709C3297.65 10.9905 3307.2 10 3316.96 10C3326.72 10 3336.27 10.9901 3345.61 12.9704C3354.14 14.7796 3362.5 17.4155 3370.68 20.8775C3378.73 24.2805 3386.32 28.362 3393.46 33.1218C3400.98 38.135 3407.99 43.9011 3414.51 50.4195C3416.72 52.6347 3418.85 54.9079 3420.89 57.2389C3426.16 52.5241 3431.71 48.2631 3437.57 44.456C3444.88 39.6997 3452.65 35.6517 3460.89 32.312C3468.98 29.0291 3477.23 26.5457 3485.65 24.8617C3494.51 23.088 3503.54 22.2012 3512.76 22.2012C3521.98 22.2012 3531.01 23.0879 3539.87 24.8615C3548.29 26.5455 3556.54 29.029 3564.63 32.312C3572.87 35.6519 3580.64 39.7002 3587.95 44.4567C3595.96 49.6626 3603.41 55.7177 3610.31 62.6204C3617.21 69.5233 3623.26 76.978 3628.47 84.9843C3633.22 92.2995 3637.27 100.076 3640.61 108.312C3643.89 116.407 3646.37 124.662 3648.06 133.077C3649.83 141.941 3650.72 150.982 3650.72 160.201C3650.72 169.42 3649.83 178.461 3648.06 187.325C3646.37 195.74 3643.89 203.995 3640.61 212.09C3637.29 220.272 3633.28 228 3628.56 235.274C3623.33 243.338 3617.25 250.844 3610.3 257.792L3488.08 380.01L3710 602L3596.9 602L3454.92 459.976L3431.52 436.569L3374.97 379.989L3431.53 323.441L3553.76 201.213C3576.4 178.563 3576.4 141.839 3553.76 119.189C3531.12 96.5386 3494.4 96.5386 3471.76 119.189L3454.45 136.504L3374.94 216.039L3374.94 148C3374.94 135.276 3370.84 123.509 3363.9 113.946C3353.36 99.435 3336.26 90 3316.96 90C3284.93 90 3258.98 115.968 3258.98 148L3258.98 602L3374.94 602L3374.94 544.024L3432.9 602L3179 602Z" fill="url(#paint_linear_5)" fill-rule="evenodd" />
	</g>
</svg>
